<mxfile host="app.diagrams.net" agent="Mozilla/5.0 (Macintosh; Intel Mac OS X 10_15_7) AppleWebKit/537.36 (KHTML, like Gecko) Chrome/135.0.0.0 Safari/537.36" version="26.2.12">
  <diagram name="Page-1" id="LvJn2KoWl22hCsLc9gMN">
    <mxGraphModel dx="1260" dy="972" grid="0" gridSize="6" guides="1" tooltips="1" connect="1" arrows="1" fold="1" page="1" pageScale="1" pageWidth="1169" pageHeight="1654" math="0" shadow="0">
      <root>
        <mxCell id="0" />
        <mxCell id="1" parent="0" />
        <mxCell id="PO3_1G73yYQrnCFHT_Af-1" value="M" style="verticalLabelPosition=middle;shadow=0;dashed=0;align=center;html=1;verticalAlign=middle;strokeWidth=1;shape=ellipse;aspect=fixed;fontSize=35;" vertex="1" parent="1">
          <mxGeometry x="340" y="350" width="90" height="90" as="geometry" />
        </mxCell>
        <mxCell id="PO3_1G73yYQrnCFHT_Af-16" style="edgeStyle=orthogonalEdgeStyle;rounded=0;orthogonalLoop=1;jettySize=auto;html=1;exitX=0.7;exitY=1;exitDx=0;exitDy=0;exitPerimeter=0;entryX=0;entryY=0.5;entryDx=0;entryDy=0;elbow=vertical;endArrow=none;startFill=0;" edge="1" parent="1" source="PO3_1G73yYQrnCFHT_Af-2" target="PO3_1G73yYQrnCFHT_Af-1">
          <mxGeometry relative="1" as="geometry" />
        </mxCell>
        <mxCell id="PO3_1G73yYQrnCFHT_Af-2" value="" style="verticalLabelPosition=bottom;shadow=0;dashed=0;align=center;html=1;verticalAlign=top;shape=mxgraph.electrical.transistors.npn_transistor_1;" vertex="1" parent="1">
          <mxGeometry x="230" y="260" width="95" height="100" as="geometry" />
        </mxCell>
        <mxCell id="PO3_1G73yYQrnCFHT_Af-3" value="" style="verticalLabelPosition=bottom;shadow=0;dashed=0;align=center;html=1;verticalAlign=top;shape=mxgraph.electrical.transistors.npn_transistor_1;" vertex="1" parent="1">
          <mxGeometry x="230" y="420" width="95" height="100" as="geometry" />
        </mxCell>
        <mxCell id="PO3_1G73yYQrnCFHT_Af-14" style="edgeStyle=orthogonalEdgeStyle;rounded=0;orthogonalLoop=1;jettySize=auto;html=1;exitX=0.7;exitY=1;exitDx=0;exitDy=0;exitPerimeter=0;entryX=1;entryY=0.5;entryDx=0;entryDy=0;elbow=vertical;endArrow=none;startFill=0;" edge="1" parent="1" source="PO3_1G73yYQrnCFHT_Af-4" target="PO3_1G73yYQrnCFHT_Af-1">
          <mxGeometry relative="1" as="geometry">
            <Array as="points">
              <mxPoint x="488" y="395" />
            </Array>
          </mxGeometry>
        </mxCell>
        <mxCell id="PO3_1G73yYQrnCFHT_Af-4" value="" style="verticalLabelPosition=bottom;shadow=0;dashed=0;align=center;html=1;verticalAlign=top;shape=mxgraph.electrical.transistors.npn_transistor_1;rotation=-180;flipH=0;flipV=1;" vertex="1" parent="1">
          <mxGeometry x="460" y="250" width="95" height="120" as="geometry" />
        </mxCell>
        <mxCell id="PO3_1G73yYQrnCFHT_Af-5" value="" style="verticalLabelPosition=bottom;shadow=0;dashed=0;align=center;html=1;verticalAlign=top;shape=mxgraph.electrical.transistors.npn_transistor_1;flipV=0;flipH=1;" vertex="1" parent="1">
          <mxGeometry x="460" y="420" width="95" height="100" as="geometry" />
        </mxCell>
        <mxCell id="PO3_1G73yYQrnCFHT_Af-15" style="edgeStyle=orthogonalEdgeStyle;rounded=0;orthogonalLoop=1;jettySize=auto;html=1;entryX=0.7;entryY=0;entryDx=0;entryDy=0;entryPerimeter=0;elbow=vertical;endArrow=none;startFill=0;" edge="1" parent="1" source="PO3_1G73yYQrnCFHT_Af-1" target="PO3_1G73yYQrnCFHT_Af-5">
          <mxGeometry relative="1" as="geometry" />
        </mxCell>
        <mxCell id="PO3_1G73yYQrnCFHT_Af-17" style="edgeStyle=orthogonalEdgeStyle;rounded=0;orthogonalLoop=1;jettySize=auto;html=1;entryX=0.7;entryY=0;entryDx=0;entryDy=0;entryPerimeter=0;elbow=vertical;endArrow=none;startFill=0;" edge="1" parent="1" source="PO3_1G73yYQrnCFHT_Af-1" target="PO3_1G73yYQrnCFHT_Af-3">
          <mxGeometry relative="1" as="geometry" />
        </mxCell>
        <mxCell id="PO3_1G73yYQrnCFHT_Af-18" style="edgeStyle=orthogonalEdgeStyle;rounded=0;orthogonalLoop=1;jettySize=auto;html=1;exitX=0.7;exitY=0;exitDx=0;exitDy=0;exitPerimeter=0;entryX=0.7;entryY=0;entryDx=0;entryDy=0;entryPerimeter=0;elbow=vertical;endArrow=none;startFill=0;" edge="1" parent="1" source="PO3_1G73yYQrnCFHT_Af-2" target="PO3_1G73yYQrnCFHT_Af-4">
          <mxGeometry relative="1" as="geometry" />
        </mxCell>
        <mxCell id="PO3_1G73yYQrnCFHT_Af-19" style="edgeStyle=orthogonalEdgeStyle;rounded=0;orthogonalLoop=1;jettySize=auto;html=1;exitX=0.7;exitY=1;exitDx=0;exitDy=0;exitPerimeter=0;entryX=0.7;entryY=1;entryDx=0;entryDy=0;entryPerimeter=0;elbow=vertical;endArrow=none;startFill=0;" edge="1" parent="1" source="PO3_1G73yYQrnCFHT_Af-3" target="PO3_1G73yYQrnCFHT_Af-5">
          <mxGeometry relative="1" as="geometry" />
        </mxCell>
        <mxCell id="PO3_1G73yYQrnCFHT_Af-21" value="" style="edgeStyle=orthogonalEdgeStyle;rounded=0;orthogonalLoop=1;jettySize=auto;html=1;elbow=vertical;endArrow=none;startFill=0;" edge="1" parent="1" source="PO3_1G73yYQrnCFHT_Af-20" target="PO3_1G73yYQrnCFHT_Af-2">
          <mxGeometry relative="1" as="geometry" />
        </mxCell>
        <mxCell id="PO3_1G73yYQrnCFHT_Af-20" value="" style="pointerEvents=1;fillColor=strokeColor;verticalLabelPosition=bottom;shadow=0;dashed=0;align=center;html=1;verticalAlign=top;shape=mxgraph.electrical.diodes.diode;" vertex="1" parent="1">
          <mxGeometry x="107" y="280" width="100" height="60" as="geometry" />
        </mxCell>
        <mxCell id="PO3_1G73yYQrnCFHT_Af-23" value="" style="edgeStyle=orthogonalEdgeStyle;rounded=0;orthogonalLoop=1;jettySize=auto;html=1;elbow=vertical;endArrow=none;startFill=0;" edge="1" parent="1" source="PO3_1G73yYQrnCFHT_Af-22" target="PO3_1G73yYQrnCFHT_Af-3">
          <mxGeometry relative="1" as="geometry" />
        </mxCell>
        <mxCell id="PO3_1G73yYQrnCFHT_Af-22" value="" style="pointerEvents=1;fillColor=strokeColor;verticalLabelPosition=bottom;shadow=0;dashed=0;align=center;html=1;verticalAlign=top;shape=mxgraph.electrical.diodes.diode;" vertex="1" parent="1">
          <mxGeometry x="107" y="440" width="100" height="60" as="geometry" />
        </mxCell>
        <mxCell id="PO3_1G73yYQrnCFHT_Af-26" value="" style="edgeStyle=orthogonalEdgeStyle;rounded=0;orthogonalLoop=1;jettySize=auto;html=1;elbow=vertical;endArrow=none;startFill=0;" edge="1" parent="1" source="PO3_1G73yYQrnCFHT_Af-24" target="PO3_1G73yYQrnCFHT_Af-4">
          <mxGeometry relative="1" as="geometry" />
        </mxCell>
        <mxCell id="PO3_1G73yYQrnCFHT_Af-24" value="" style="pointerEvents=1;fillColor=strokeColor;verticalLabelPosition=bottom;shadow=0;dashed=0;align=center;html=1;verticalAlign=top;shape=mxgraph.electrical.diodes.diode;flipH=1;" vertex="1" parent="1">
          <mxGeometry x="585" y="280" width="100" height="60" as="geometry" />
        </mxCell>
        <mxCell id="PO3_1G73yYQrnCFHT_Af-27" value="" style="edgeStyle=orthogonalEdgeStyle;rounded=0;orthogonalLoop=1;jettySize=auto;html=1;elbow=vertical;endArrow=none;startFill=0;" edge="1" parent="1" source="PO3_1G73yYQrnCFHT_Af-25" target="PO3_1G73yYQrnCFHT_Af-5">
          <mxGeometry relative="1" as="geometry" />
        </mxCell>
        <mxCell id="PO3_1G73yYQrnCFHT_Af-25" value="" style="pointerEvents=1;fillColor=strokeColor;verticalLabelPosition=bottom;shadow=0;dashed=0;align=center;html=1;verticalAlign=top;shape=mxgraph.electrical.diodes.diode;flipH=1;" vertex="1" parent="1">
          <mxGeometry x="585" y="440" width="100" height="60" as="geometry" />
        </mxCell>
        <mxCell id="PO3_1G73yYQrnCFHT_Af-28" value="V&lt;sub&gt;dd&lt;/sub&gt;" style="verticalLabelPosition=top;verticalAlign=bottom;shape=mxgraph.electrical.signal_sources.vdd;shadow=0;dashed=0;align=center;strokeWidth=1;fontSize=24;html=1;flipV=1;" vertex="1" parent="1">
          <mxGeometry x="355" y="140" width="60" height="40" as="geometry" />
        </mxCell>
        <mxCell id="PO3_1G73yYQrnCFHT_Af-29" value="V&lt;sub&gt;ss&lt;/sub&gt;" style="pointerEvents=1;verticalLabelPosition=bottom;shadow=0;dashed=0;align=center;html=1;verticalAlign=top;shape=mxgraph.electrical.signal_sources.vss2;fontSize=24;flipV=1;" vertex="1" parent="1">
          <mxGeometry x="355" y="551" width="60" height="40" as="geometry" />
        </mxCell>
        <mxCell id="PO3_1G73yYQrnCFHT_Af-30" style="edgeStyle=orthogonalEdgeStyle;rounded=0;orthogonalLoop=1;jettySize=auto;html=1;entryX=0.5;entryY=1;entryDx=0;entryDy=0;entryPerimeter=0;elbow=vertical;exitX=0.7;exitY=1;exitDx=0;exitDy=0;exitPerimeter=0;endArrow=none;startFill=0;" edge="1" parent="1" source="PO3_1G73yYQrnCFHT_Af-3" target="PO3_1G73yYQrnCFHT_Af-29">
          <mxGeometry relative="1" as="geometry">
            <Array as="points">
              <mxPoint x="296" y="540" />
              <mxPoint x="385" y="540" />
            </Array>
          </mxGeometry>
        </mxCell>
        <mxCell id="PO3_1G73yYQrnCFHT_Af-31" style="edgeStyle=orthogonalEdgeStyle;rounded=0;orthogonalLoop=1;jettySize=auto;html=1;entryX=0.7;entryY=0;entryDx=0;entryDy=0;entryPerimeter=0;elbow=vertical;exitX=0.5;exitY=0;exitDx=0;exitDy=0;exitPerimeter=0;endArrow=none;startFill=0;" edge="1" parent="1" source="PO3_1G73yYQrnCFHT_Af-28" target="PO3_1G73yYQrnCFHT_Af-4">
          <mxGeometry relative="1" as="geometry">
            <Array as="points">
              <mxPoint x="385" y="240" />
              <mxPoint x="488" y="240" />
            </Array>
          </mxGeometry>
        </mxCell>
        <mxCell id="PO3_1G73yYQrnCFHT_Af-32" value="In 1" style="text;html=1;align=center;verticalAlign=middle;resizable=0;points=[];autosize=1;strokeColor=none;fillColor=none;" vertex="1" parent="1">
          <mxGeometry x="138" y="234" width="38" height="26" as="geometry" />
        </mxCell>
        <mxCell id="PO3_1G73yYQrnCFHT_Af-33" value="In 4" style="text;html=1;align=center;verticalAlign=middle;resizable=0;points=[];autosize=1;strokeColor=none;fillColor=none;" vertex="1" parent="1">
          <mxGeometry x="138" y="394" width="38" height="26" as="geometry" />
        </mxCell>
        <mxCell id="PO3_1G73yYQrnCFHT_Af-35" value="In 2" style="text;html=1;align=center;verticalAlign=middle;resizable=0;points=[];autosize=1;strokeColor=none;fillColor=none;" vertex="1" parent="1">
          <mxGeometry x="616" y="234" width="38" height="26" as="geometry" />
        </mxCell>
        <mxCell id="PO3_1G73yYQrnCFHT_Af-36" value="In 3" style="text;html=1;align=center;verticalAlign=middle;resizable=0;points=[];autosize=1;strokeColor=none;fillColor=none;" vertex="1" parent="1">
          <mxGeometry x="616" y="394" width="38" height="26" as="geometry" />
        </mxCell>
        <mxCell id="PO3_1G73yYQrnCFHT_Af-148" value="" style="shape=table;startSize=0;container=1;collapsible=0;childLayout=tableLayout;fontSize=16;" vertex="1" parent="1">
          <mxGeometry x="803" y="135" width="311" height="200.04166666666666" as="geometry" />
        </mxCell>
        <mxCell id="PO3_1G73yYQrnCFHT_Af-149" value="" style="shape=tableRow;horizontal=0;startSize=0;swimlaneHead=0;swimlaneBody=0;strokeColor=inherit;top=0;left=0;bottom=0;right=0;collapsible=0;dropTarget=0;fillColor=none;points=[[0,0.5],[1,0.5]];portConstraint=eastwest;fontSize=16;" vertex="1" parent="PO3_1G73yYQrnCFHT_Af-148">
          <mxGeometry width="311" height="40" as="geometry" />
        </mxCell>
        <mxCell id="PO3_1G73yYQrnCFHT_Af-150" value="1" style="shape=partialRectangle;html=1;whiteSpace=wrap;connectable=0;strokeColor=inherit;overflow=hidden;fillColor=light-dark(default, #bfbfbf);top=0;left=0;bottom=0;right=0;pointerEvents=1;fontSize=16;" vertex="1" parent="PO3_1G73yYQrnCFHT_Af-149">
          <mxGeometry width="62" height="40" as="geometry">
            <mxRectangle width="62" height="40" as="alternateBounds" />
          </mxGeometry>
        </mxCell>
        <mxCell id="PO3_1G73yYQrnCFHT_Af-151" value="0" style="shape=partialRectangle;html=1;whiteSpace=wrap;connectable=0;strokeColor=inherit;overflow=hidden;fillColor=none;top=0;left=0;bottom=0;right=0;pointerEvents=1;fontSize=16;" vertex="1" parent="PO3_1G73yYQrnCFHT_Af-149">
          <mxGeometry x="62" width="63" height="40" as="geometry">
            <mxRectangle width="63" height="40" as="alternateBounds" />
          </mxGeometry>
        </mxCell>
        <mxCell id="PO3_1G73yYQrnCFHT_Af-152" value="1" style="shape=partialRectangle;html=1;whiteSpace=wrap;connectable=0;strokeColor=inherit;overflow=hidden;fillColor=none;top=0;left=0;bottom=0;right=0;pointerEvents=1;fontSize=16;" vertex="1" parent="PO3_1G73yYQrnCFHT_Af-149">
          <mxGeometry x="125" width="62" height="40" as="geometry">
            <mxRectangle width="62" height="40" as="alternateBounds" />
          </mxGeometry>
        </mxCell>
        <mxCell id="PO3_1G73yYQrnCFHT_Af-169" value="0" style="shape=partialRectangle;html=1;whiteSpace=wrap;connectable=0;strokeColor=inherit;overflow=hidden;fillColor=none;top=0;left=0;bottom=0;right=0;pointerEvents=1;fontSize=16;" vertex="1" parent="PO3_1G73yYQrnCFHT_Af-149">
          <mxGeometry x="187" width="62" height="40" as="geometry">
            <mxRectangle width="62" height="40" as="alternateBounds" />
          </mxGeometry>
        </mxCell>
        <mxCell id="PO3_1G73yYQrnCFHT_Af-182" value="1" style="shape=partialRectangle;html=1;whiteSpace=wrap;connectable=0;strokeColor=inherit;overflow=hidden;fillColor=none;top=0;left=0;bottom=0;right=0;pointerEvents=1;fontSize=16;" vertex="1" parent="PO3_1G73yYQrnCFHT_Af-149">
          <mxGeometry x="249" width="62" height="40" as="geometry">
            <mxRectangle width="62" height="40" as="alternateBounds" />
          </mxGeometry>
        </mxCell>
        <mxCell id="PO3_1G73yYQrnCFHT_Af-153" value="" style="shape=tableRow;horizontal=0;startSize=0;swimlaneHead=0;swimlaneBody=0;strokeColor=inherit;top=0;left=0;bottom=0;right=0;collapsible=0;dropTarget=0;fillColor=none;points=[[0,0.5],[1,0.5]];portConstraint=eastwest;fontSize=16;" vertex="1" parent="PO3_1G73yYQrnCFHT_Af-148">
          <mxGeometry y="40" width="311" height="40" as="geometry" />
        </mxCell>
        <mxCell id="PO3_1G73yYQrnCFHT_Af-154" value="2" style="shape=partialRectangle;html=1;whiteSpace=wrap;connectable=0;strokeColor=inherit;overflow=hidden;fillColor=light-dark(default, #bfbfbf);top=0;left=0;bottom=0;right=0;pointerEvents=1;fontSize=16;" vertex="1" parent="PO3_1G73yYQrnCFHT_Af-153">
          <mxGeometry width="62" height="40" as="geometry">
            <mxRectangle width="62" height="40" as="alternateBounds" />
          </mxGeometry>
        </mxCell>
        <mxCell id="PO3_1G73yYQrnCFHT_Af-155" value="1" style="shape=partialRectangle;html=1;whiteSpace=wrap;connectable=0;strokeColor=inherit;overflow=hidden;fillColor=none;top=0;left=0;bottom=0;right=0;pointerEvents=1;fontSize=16;" vertex="1" parent="PO3_1G73yYQrnCFHT_Af-153">
          <mxGeometry x="62" width="63" height="40" as="geometry">
            <mxRectangle width="63" height="40" as="alternateBounds" />
          </mxGeometry>
        </mxCell>
        <mxCell id="PO3_1G73yYQrnCFHT_Af-156" value="0" style="shape=partialRectangle;html=1;whiteSpace=wrap;connectable=0;strokeColor=inherit;overflow=hidden;fillColor=none;top=0;left=0;bottom=0;right=0;pointerEvents=1;fontSize=16;" vertex="1" parent="PO3_1G73yYQrnCFHT_Af-153">
          <mxGeometry x="125" width="62" height="40" as="geometry">
            <mxRectangle width="62" height="40" as="alternateBounds" />
          </mxGeometry>
        </mxCell>
        <mxCell id="PO3_1G73yYQrnCFHT_Af-170" value="1" style="shape=partialRectangle;html=1;whiteSpace=wrap;connectable=0;strokeColor=inherit;overflow=hidden;fillColor=none;top=0;left=0;bottom=0;right=0;pointerEvents=1;fontSize=16;" vertex="1" parent="PO3_1G73yYQrnCFHT_Af-153">
          <mxGeometry x="187" width="62" height="40" as="geometry">
            <mxRectangle width="62" height="40" as="alternateBounds" />
          </mxGeometry>
        </mxCell>
        <mxCell id="PO3_1G73yYQrnCFHT_Af-183" value="0" style="shape=partialRectangle;html=1;whiteSpace=wrap;connectable=0;strokeColor=inherit;overflow=hidden;fillColor=none;top=0;left=0;bottom=0;right=0;pointerEvents=1;fontSize=16;" vertex="1" parent="PO3_1G73yYQrnCFHT_Af-153">
          <mxGeometry x="249" width="62" height="40" as="geometry">
            <mxRectangle width="62" height="40" as="alternateBounds" />
          </mxGeometry>
        </mxCell>
        <mxCell id="PO3_1G73yYQrnCFHT_Af-157" value="" style="shape=tableRow;horizontal=0;startSize=0;swimlaneHead=0;swimlaneBody=0;strokeColor=inherit;top=0;left=0;bottom=0;right=0;collapsible=0;dropTarget=0;fillColor=none;points=[[0,0.5],[1,0.5]];portConstraint=eastwest;fontSize=16;" vertex="1" parent="PO3_1G73yYQrnCFHT_Af-148">
          <mxGeometry y="80" width="311" height="40" as="geometry" />
        </mxCell>
        <mxCell id="PO3_1G73yYQrnCFHT_Af-158" value="3" style="shape=partialRectangle;html=1;whiteSpace=wrap;connectable=0;strokeColor=inherit;overflow=hidden;fillColor=light-dark(default, #bfbfbf);top=0;left=0;bottom=0;right=0;pointerEvents=1;fontSize=16;" vertex="1" parent="PO3_1G73yYQrnCFHT_Af-157">
          <mxGeometry width="62" height="40" as="geometry">
            <mxRectangle width="62" height="40" as="alternateBounds" />
          </mxGeometry>
        </mxCell>
        <mxCell id="PO3_1G73yYQrnCFHT_Af-159" value="0" style="shape=partialRectangle;html=1;whiteSpace=wrap;connectable=0;strokeColor=inherit;overflow=hidden;fillColor=none;top=0;left=0;bottom=0;right=0;pointerEvents=1;fontSize=16;" vertex="1" parent="PO3_1G73yYQrnCFHT_Af-157">
          <mxGeometry x="62" width="63" height="40" as="geometry">
            <mxRectangle width="63" height="40" as="alternateBounds" />
          </mxGeometry>
        </mxCell>
        <mxCell id="PO3_1G73yYQrnCFHT_Af-160" value="1" style="shape=partialRectangle;html=1;whiteSpace=wrap;connectable=0;strokeColor=inherit;overflow=hidden;fillColor=none;top=0;left=0;bottom=0;right=0;pointerEvents=1;fontSize=16;" vertex="1" parent="PO3_1G73yYQrnCFHT_Af-157">
          <mxGeometry x="125" width="62" height="40" as="geometry">
            <mxRectangle width="62" height="40" as="alternateBounds" />
          </mxGeometry>
        </mxCell>
        <mxCell id="PO3_1G73yYQrnCFHT_Af-171" value="1" style="shape=partialRectangle;html=1;whiteSpace=wrap;connectable=0;strokeColor=inherit;overflow=hidden;fillColor=none;top=0;left=0;bottom=0;right=0;pointerEvents=1;fontSize=16;" vertex="1" parent="PO3_1G73yYQrnCFHT_Af-157">
          <mxGeometry x="187" width="62" height="40" as="geometry">
            <mxRectangle width="62" height="40" as="alternateBounds" />
          </mxGeometry>
        </mxCell>
        <mxCell id="PO3_1G73yYQrnCFHT_Af-184" value="0" style="shape=partialRectangle;html=1;whiteSpace=wrap;connectable=0;strokeColor=inherit;overflow=hidden;fillColor=none;top=0;left=0;bottom=0;right=0;pointerEvents=1;fontSize=16;" vertex="1" parent="PO3_1G73yYQrnCFHT_Af-157">
          <mxGeometry x="249" width="62" height="40" as="geometry">
            <mxRectangle width="62" height="40" as="alternateBounds" />
          </mxGeometry>
        </mxCell>
        <mxCell id="PO3_1G73yYQrnCFHT_Af-161" value="" style="shape=tableRow;horizontal=0;startSize=0;swimlaneHead=0;swimlaneBody=0;strokeColor=inherit;top=0;left=0;bottom=0;right=0;collapsible=0;dropTarget=0;fillColor=none;points=[[0,0.5],[1,0.5]];portConstraint=eastwest;fontSize=16;" vertex="1" parent="PO3_1G73yYQrnCFHT_Af-148">
          <mxGeometry y="120" width="311" height="40" as="geometry" />
        </mxCell>
        <mxCell id="PO3_1G73yYQrnCFHT_Af-162" value="4" style="shape=partialRectangle;html=1;whiteSpace=wrap;connectable=0;strokeColor=inherit;overflow=hidden;fillColor=light-dark(default, #bfbfbf);top=0;left=0;bottom=0;right=0;pointerEvents=1;fontSize=16;" vertex="1" parent="PO3_1G73yYQrnCFHT_Af-161">
          <mxGeometry width="62" height="40" as="geometry">
            <mxRectangle width="62" height="40" as="alternateBounds" />
          </mxGeometry>
        </mxCell>
        <mxCell id="PO3_1G73yYQrnCFHT_Af-163" value="1" style="shape=partialRectangle;html=1;whiteSpace=wrap;connectable=0;strokeColor=inherit;overflow=hidden;fillColor=none;top=0;left=0;bottom=0;right=0;pointerEvents=1;fontSize=16;" vertex="1" parent="PO3_1G73yYQrnCFHT_Af-161">
          <mxGeometry x="62" width="63" height="40" as="geometry">
            <mxRectangle width="63" height="40" as="alternateBounds" />
          </mxGeometry>
        </mxCell>
        <mxCell id="PO3_1G73yYQrnCFHT_Af-164" value="0" style="shape=partialRectangle;html=1;whiteSpace=wrap;connectable=0;strokeColor=inherit;overflow=hidden;fillColor=none;top=0;left=0;bottom=0;right=0;pointerEvents=1;fontSize=16;" vertex="1" parent="PO3_1G73yYQrnCFHT_Af-161">
          <mxGeometry x="125" width="62" height="40" as="geometry">
            <mxRectangle width="62" height="40" as="alternateBounds" />
          </mxGeometry>
        </mxCell>
        <mxCell id="PO3_1G73yYQrnCFHT_Af-172" value="0" style="shape=partialRectangle;html=1;whiteSpace=wrap;connectable=0;strokeColor=inherit;overflow=hidden;fillColor=none;top=0;left=0;bottom=0;right=0;pointerEvents=1;fontSize=16;" vertex="1" parent="PO3_1G73yYQrnCFHT_Af-161">
          <mxGeometry x="187" width="62" height="40" as="geometry">
            <mxRectangle width="62" height="40" as="alternateBounds" />
          </mxGeometry>
        </mxCell>
        <mxCell id="PO3_1G73yYQrnCFHT_Af-185" value="1" style="shape=partialRectangle;html=1;whiteSpace=wrap;connectable=0;strokeColor=inherit;overflow=hidden;fillColor=none;top=0;left=0;bottom=0;right=0;pointerEvents=1;fontSize=16;" vertex="1" parent="PO3_1G73yYQrnCFHT_Af-161">
          <mxGeometry x="249" width="62" height="40" as="geometry">
            <mxRectangle width="62" height="40" as="alternateBounds" />
          </mxGeometry>
        </mxCell>
        <mxCell id="PO3_1G73yYQrnCFHT_Af-165" value="" style="shape=tableRow;horizontal=0;startSize=0;swimlaneHead=0;swimlaneBody=0;strokeColor=inherit;top=0;left=0;bottom=0;right=0;collapsible=0;dropTarget=0;fillColor=none;points=[[0,0.5],[1,0.5]];portConstraint=eastwest;fontSize=16;" vertex="1" parent="PO3_1G73yYQrnCFHT_Af-148">
          <mxGeometry y="160" width="311" height="40" as="geometry" />
        </mxCell>
        <mxCell id="PO3_1G73yYQrnCFHT_Af-166" value="M" style="shape=partialRectangle;html=1;whiteSpace=wrap;connectable=0;strokeColor=inherit;overflow=hidden;fillColor=light-dark(default, #bfbfbf);top=0;left=0;bottom=0;right=0;pointerEvents=1;fontSize=16;" vertex="1" parent="PO3_1G73yYQrnCFHT_Af-165">
          <mxGeometry width="62" height="40" as="geometry">
            <mxRectangle width="62" height="40" as="alternateBounds" />
          </mxGeometry>
        </mxCell>
        <mxCell id="PO3_1G73yYQrnCFHT_Af-167" value="F" style="shape=partialRectangle;html=1;whiteSpace=wrap;connectable=0;strokeColor=inherit;overflow=hidden;fillColor=none;top=0;left=0;bottom=0;right=0;pointerEvents=1;fontSize=16;" vertex="1" parent="PO3_1G73yYQrnCFHT_Af-165">
          <mxGeometry x="62" width="63" height="40" as="geometry">
            <mxRectangle width="63" height="40" as="alternateBounds" />
          </mxGeometry>
        </mxCell>
        <mxCell id="PO3_1G73yYQrnCFHT_Af-168" value="R" style="shape=partialRectangle;html=1;whiteSpace=wrap;connectable=0;strokeColor=inherit;overflow=hidden;fillColor=none;top=0;left=0;bottom=0;right=0;pointerEvents=1;fontSize=16;" vertex="1" parent="PO3_1G73yYQrnCFHT_Af-165">
          <mxGeometry x="125" width="62" height="40" as="geometry">
            <mxRectangle width="62" height="40" as="alternateBounds" />
          </mxGeometry>
        </mxCell>
        <mxCell id="PO3_1G73yYQrnCFHT_Af-173" value="0" style="shape=partialRectangle;html=1;whiteSpace=wrap;connectable=0;strokeColor=inherit;overflow=hidden;fillColor=none;top=0;left=0;bottom=0;right=0;pointerEvents=1;fontSize=16;" vertex="1" parent="PO3_1G73yYQrnCFHT_Af-165">
          <mxGeometry x="187" width="62" height="40" as="geometry">
            <mxRectangle width="62" height="40" as="alternateBounds" />
          </mxGeometry>
        </mxCell>
        <mxCell id="PO3_1G73yYQrnCFHT_Af-186" value="0" style="shape=partialRectangle;html=1;whiteSpace=wrap;connectable=0;strokeColor=inherit;overflow=hidden;fillColor=none;top=0;left=0;bottom=0;right=0;pointerEvents=1;fontSize=16;" vertex="1" parent="PO3_1G73yYQrnCFHT_Af-165">
          <mxGeometry x="249" width="62" height="40" as="geometry">
            <mxRectangle width="62" height="40" as="alternateBounds" />
          </mxGeometry>
        </mxCell>
        <mxCell id="PO3_1G73yYQrnCFHT_Af-179" value="&lt;font style=&quot;font-size: 16px;&quot;&gt;+&lt;/font&gt;" style="text;html=1;align=center;verticalAlign=middle;resizable=0;points=[];autosize=1;strokeColor=none;fillColor=none;" vertex="1" parent="1">
          <mxGeometry x="323" y="333" width="27" height="31" as="geometry" />
        </mxCell>
        <mxCell id="PO3_1G73yYQrnCFHT_Af-180" value="&lt;font style=&quot;font-size: 16px;&quot;&gt;-&lt;/font&gt;" style="text;html=1;align=center;verticalAlign=middle;resizable=0;points=[];autosize=1;strokeColor=none;fillColor=none;strokeWidth=1;" vertex="1" parent="1">
          <mxGeometry x="415" y="332" width="23" height="31" as="geometry" />
        </mxCell>
      </root>
    </mxGraphModel>
  </diagram>
</mxfile>
